# xmcd
#
# Track frame offsets:
#	150
#	14261
#	29347
#	42966
#	52418
#	66002
#	84287
#	98512
#	114754
#	128430
#	146848
#	167653
#	183660
#	195864
#	206545
#	217031
#	230520
#	242532
#	254651
#	264022
#	275130
#	286114
#	298542
#	309236
#	319076
#	332660
#	345133
#
# Disc length: 4768 seconds
#
# Revision: 1
# Processed by: cddbd v1.4PL0 Copyright (c) Steve Scherf et al.
# Submitted via: audiograbber 1.82.02
#
DISCID=7c129e1b
DTITLE=PETULA CLARK - HER GREATEST HITS
DYEAR=1900
DGENRE=
TTITLE0=DOWNTOWN
TTITLE1=THIS IS MY SONG
TTITLE2=DON'T SLEEP IN THE SUBWAY
TTITLE3=THE CAT IN THE WINDOW
TTITLE4=THE OTHER MAN'S GRASS IS ALWAYS GREENER
TTITLE5=KISS ME GOODBYE
TTITLE6=DON'T GIVE UP
TTITLE7=HAPPY HEART
TTITLE8=LOOK AT MINE
TTITLE9=THE SONG OF MY LIFE
TTITLE10=I DON'T KNOW HOW TO LOVE HIM
TTITLE11=DOWNTOWN (1988)
TTITLE12=I KNOW A PLACE
TTITLE13=YOU'RE THE ONE
TTITLE14=THE LITTLE SHOEMAKER
TTITLE15=MAJORCA
TTITLE16=SUDDENLY THERE'S A VALLEY
TTITLE17=WITH ALL MY HEART
TTITLE18=ALONE
TTITLE19=BABY LOVER
TTITLE20=LOVE ME AGAIN
TTITLE21=EVER BEEN IN LOVE
TTITLE22=WHERE DO I GO FROM HERE
TTITLE23=CINDERELLA JONES
TTITLE24=SAILOR
TTITLE25=SOMETHING MISSING
TTITLE26=ROMEO
EXTD=
EXTT0=
EXTT1=
EXTT2=
EXTT3=
EXTT4=
EXTT5=
EXTT6=
EXTT7=
EXTT8=
EXTT9=
EXTT10=
EXTT11=
EXTT12=
EXTT13=
EXTT14=
EXTT15=
EXTT16=
EXTT17=
EXTT18=
EXTT19=
EXTT20=
EXTT21=
EXTT22=
EXTT23=
EXTT24=
EXTT25=
EXTT26=
PLAYORDER=
